<?xml version="1.0" encoding="UTF-8" standalone="no"?>
<!DOCTYPE svg PUBLIC "-//W3C//DTD SVG 1.1//EN"
 "http://www.w3.org/Graphics/SVG/1.1/DTD/svg11.dtd">
<!-- Generated by graphviz version 14.1.3 (0)
 -->
<!-- Title: acva_observability Pages: 1 -->
<svg width="1505pt" height="1814pt"
 viewBox="0.00 0.00 1505.00 1814.00" xmlns="http://www.w3.org/2000/svg" xmlns:xlink="http://www.w3.org/1999/xlink">
<g id="graph0" class="graph" transform="scale(1 1) rotate(0) translate(4 1810.07)">
<title>acva_observability</title>
<polygon fill="white" stroke="none" points="-4,4 -4,-1810.07 1501.49,-1810.07 1501.49,4 -4,4"/>
<g id="clust1" class="cluster">
<title>cluster_acva</title>
<polygon fill="#dbeafe" stroke="#1d4ed8" points="442.49,-362.67 442.49,-646.67 1172.86,-646.67 1172.86,-362.67 442.49,-362.67"/>
<text xml:space="preserve" text-anchor="middle" x="807.68" y="-631.27" font-family="Inter,Helvetica,sans-serif" font-size="12.00" fill="#1e3a8a">acva daemon (host process)</text>
</g>
<g id="clust3" class="cluster">
<title>cluster_endpoints</title>
<polygon fill="#cffafe" stroke="#0e7490" points="1297.99,-1167.67 1297.99,-1632.67 1489.49,-1632.67 1489.49,-1167.67 1297.99,-1167.67"/>
<text xml:space="preserve" text-anchor="middle" x="1393.74" y="-1618.22" font-family="Inter,Helvetica,sans-serif" font-size="11.00" fill="#155e75">HTTP control plane (127.0.0.1:9876)</text>
</g>
<g id="clust4" class="cluster">
<title>cluster_storage</title>
<polygon fill="#dcfce7" stroke="#15803d" points="1054.86,-654.67 1054.86,-841.67 1184.86,-841.67 1184.86,-654.67 1054.86,-654.67"/>
<text xml:space="preserve" text-anchor="middle" x="1119.86" y="-827.22" font-family="Inter,Helvetica,sans-serif" font-size="11.00" fill="#14532d">Local storage (per&#45;host)</text>
</g>
<g id="clust5" class="cluster">
<title>cluster_compose</title>
<polygon fill="#ffedd5" stroke="#c2410c" points="1041.74,-93.67 1041.74,-316.67 1197.99,-316.67 1197.99,-93.67 1041.74,-93.67"/>
<text xml:space="preserve" text-anchor="middle" x="1119.86" y="-302.22" font-family="Inter,Helvetica,sans-serif" font-size="11.00" fill="#7c2d12">Compose backends (Docker)</text>
</g>
<g id="clust6" class="cluster">
<title>cluster_obs</title>
<polygon fill="#ede9fe" stroke="#6d28d9" points="740.61,-1123.67 740.61,-1267.67 1161.61,-1267.67 1161.61,-1123.67 740.61,-1123.67"/>
<text xml:space="preserve" text-anchor="middle" x="951.11" y="-1253.22" font-family="Inter,Helvetica,sans-serif" font-size="11.00" fill="#4c1d95">Observability stack (operator&#45;installed)</text>
</g>
<g id="clust7" class="cluster">
<title>cluster_soak</title>
<polygon fill="#fee2e2" stroke="#b91c1c" points="8,-1633.67 8,-1769.67 549.49,-1769.67 549.49,-1633.67 8,-1633.67"/>
<text xml:space="preserve" text-anchor="middle" x="278.75" y="-1755.22" font-family="Inter,Helvetica,sans-serif" font-size="11.00" fill="#7f1d1d">Soak harness (M8B Step 1)</text>
</g>
<g id="clust8" class="cluster">
<title>cluster_sys</title>
<polygon fill="#f1f5f9" stroke="#475569" points="1309.23,-133.67 1309.23,-486.67 1477.25,-486.67 1477.25,-133.67 1309.23,-133.67"/>
<text xml:space="preserve" text-anchor="middle" x="1393.24" y="-472.22" font-family="Inter,Helvetica,sans-serif" font-size="11.00" fill="#334155">System interfaces</text>
</g>
<!-- acva -->
<g id="node1" class="node">
<title>acva</title>
<polygon fill="#3b82f6" stroke="#1f2937" stroke-width="1.2" points="542.24,-551.67 450.49,-551.67 450.49,-515.67 542.24,-515.67 542.24,-551.67"/>
<text xml:space="preserve" text-anchor="middle" x="496.37" y="-534.67" font-family="Inter,Helvetica,sans-serif" font-size="10.00" fill="white">acva</text>
<text xml:space="preserve" text-anchor="middle" x="496.37" y="-524.17" font-family="Inter,Helvetica,sans-serif" font-size="10.00" fill="white">main orchestrator</text>
</g>
<!-- AudioPipeline -->
<g id="node2" class="node">
<title>AudioPipeline</title>
<polygon fill="#93c5fd" stroke="#1f2937" stroke-width="1.2" points="877.11,-548.42 759.86,-548.42 759.86,-508.92 877.11,-508.92 877.11,-548.42"/>
<text xml:space="preserve" text-anchor="middle" x="818.49" y="-534.92" font-family="Inter,Helvetica,sans-serif" font-size="10.00" fill="#0c1844">AudioPipeline</text>
<text xml:space="preserve" text-anchor="middle" x="818.49" y="-524.42" font-family="Inter,Helvetica,sans-serif" font-size="10.00" fill="#0c1844">(capture · APM · VAD ·</text>
<text xml:space="preserve" text-anchor="middle" x="818.49" y="-513.92" font-family="Inter,Helvetica,sans-serif" font-size="10.00" fill="#0c1844">endpointer · barge&#45;in)</text>
</g>
<!-- acva&#45;&gt;AudioPipeline -->
<!-- DialogueManager -->
<g id="node3" class="node">
<title>DialogueManager</title>
<polygon fill="#93c5fd" stroke="#1f2937" stroke-width="1.2" points="880.86,-479.42 756.11,-479.42 756.11,-439.92 880.86,-439.92 880.86,-479.42"/>
<text xml:space="preserve" text-anchor="middle" x="818.49" y="-465.92" font-family="Inter,Helvetica,sans-serif" font-size="10.00" fill="#0c1844">DialogueManager</text>
<text xml:space="preserve" text-anchor="middle" x="818.49" y="-455.42" font-family="Inter,Helvetica,sans-serif" font-size="10.00" fill="#0c1844">(LLM · sentence splitter ·</text>
<text xml:space="preserve" text-anchor="middle" x="818.49" y="-444.92" font-family="Inter,Helvetica,sans-serif" font-size="10.00" fill="#0c1844">TTS bridge · playback)</text>
</g>
<!-- acva&#45;&gt;DialogueManager -->
<!-- Supervisor -->
<g id="node4" class="node">
<title>Supervisor</title>
<polygon fill="#93c5fd" stroke="#1f2937" stroke-width="1.2" points="875.61,-410.42 761.36,-410.42 761.36,-370.92 875.61,-370.92 875.61,-410.42"/>
<text xml:space="preserve" text-anchor="middle" x="818.49" y="-396.92" font-family="Inter,Helvetica,sans-serif" font-size="10.00" fill="#0c1844">Supervisor</text>
<text xml:space="preserve" text-anchor="middle" x="818.49" y="-386.42" font-family="Inter,Helvetica,sans-serif" font-size="10.00" fill="#0c1844">(/health probes ·</text>
<text xml:space="preserve" text-anchor="middle" x="818.49" y="-375.92" font-family="Inter,Helvetica,sans-serif" font-size="10.00" fill="#0c1844">KeepAlive · Watchdog)</text>
</g>
<!-- acva&#45;&gt;Supervisor -->
<!-- VramMonitor -->
<g id="node5" class="node">
<title>VramMonitor</title>
<polygon fill="#bfdbfe" stroke="#1f2937" stroke-width="1.2" points="890.24,-617.42 746.74,-617.42 746.74,-577.92 890.24,-577.92 890.24,-617.42"/>
<text xml:space="preserve" text-anchor="middle" x="818.49" y="-603.92" font-family="Inter,Helvetica,sans-serif" font-size="10.00" fill="#0c1844">VramMonitor</text>
<text xml:space="preserve" text-anchor="middle" x="818.49" y="-593.42" font-family="Inter,Helvetica,sans-serif" font-size="10.00" fill="#0c1844">(periodic probe;</text>
<text xml:space="preserve" text-anchor="middle" x="818.49" y="-582.92" font-family="Inter,Helvetica,sans-serif" font-size="10.00" fill="#0c1844">M8B Step 1 wedge classifier)</text>
</g>
<!-- acva&#45;&gt;VramMonitor -->
<!-- json_log -->
<g id="node16" class="node">
<title>json_log</title>
<polygon fill="#bbf7d0" stroke="#1f2937" stroke-width="1.2" points="1172.74,-814.42 1169.74,-818.42 1148.74,-818.42 1145.74,-814.42 1065.99,-814.42 1065.99,-774.92 1172.74,-774.92 1172.74,-814.42"/>
<text xml:space="preserve" text-anchor="middle" x="1119.36" y="-800.92" font-family="Inter,Helvetica,sans-serif" font-size="10.00" fill="#14532d">JSON log files</text>
<text xml:space="preserve" text-anchor="middle" x="1119.36" y="-790.42" font-family="Inter,Helvetica,sans-serif" font-size="10.00" fill="#14532d">acva&#45;YYYY…log</text>
<text xml:space="preserve" text-anchor="middle" x="1119.36" y="-779.92" font-family="Inter,Helvetica,sans-serif" font-size="10.00" fill="#14532d">(cfg.logging.dir_path)</text>
</g>
<!-- acva&#45;&gt;json_log -->
<g id="edge18" class="edge">
<title>acva&#45;&gt;json_log</title>
<path fill="none" stroke="#15803d" d="M538.57,-552.15C553.9,-558.98 571.47,-566.74 587.49,-573.67 731.25,-635.89 767.54,-650.67 912.24,-710.67 961.06,-730.92 1016.56,-753.51 1057.65,-770.16"/>
<polygon fill="#15803d" stroke="#15803d" points="1056.33,-773.4 1066.91,-773.9 1058.95,-766.91 1056.33,-773.4"/>
<text xml:space="preserve" text-anchor="middle" x="818.49" y="-702.27" font-family="Inter,Helvetica,sans-serif" font-size="9.00">spdlog JSON sink</text>
</g>
<!-- model_ctl -->
<g id="node19" class="node">
<title>model_ctl</title>
<polygon fill="#fed7aa" stroke="#1f2937" stroke-width="1.2" points="1172.74,-141.42 1065.99,-141.42 1065.99,-101.92 1172.74,-101.92 1172.74,-141.42"/>
<text xml:space="preserve" text-anchor="middle" x="1119.36" y="-127.92" font-family="Inter,Helvetica,sans-serif" font-size="10.00" fill="#7c2d12">model&#45;controller (Go)</text>
<text xml:space="preserve" text-anchor="middle" x="1119.36" y="-117.42" font-family="Inter,Helvetica,sans-serif" font-size="10.00" fill="#7c2d12">:9877</text>
<text xml:space="preserve" text-anchor="middle" x="1119.36" y="-106.92" font-family="Inter,Helvetica,sans-serif" font-size="10.00" fill="#7c2d12">POST /llm/load</text>
</g>
<!-- acva&#45;&gt;model_ctl -->
<g id="edge24" class="edge">
<title>acva&#45;&gt;model_ctl</title>
<path fill="none" stroke="#c2410c" d="M507.08,-515.5C546.14,-444.69 699.95,-186.92 912.24,-101.67 957.57,-83.47 1012.84,-90.22 1054.73,-100.56"/>
<polygon fill="#c2410c" stroke="#c2410c" points="1053.6,-103.88 1064.16,-103.02 1055.37,-97.11 1053.6,-103.88"/>
<text xml:space="preserve" text-anchor="middle" x="818.49" y="-209.22" font-family="Inter,Helvetica,sans-serif" font-size="9.00">POST /llm/load (boot)</text>
</g>
<!-- otel -->
<g id="node22" class="node">
<title>otel</title>
<polygon fill="#c4b5fd" stroke="#1f2937" stroke-width="1.2" stroke-dasharray="5,2" points="869.99,-1171.42 766.99,-1171.42 766.99,-1131.92 869.99,-1131.92 869.99,-1171.42"/>
<text xml:space="preserve" text-anchor="middle" x="818.49" y="-1157.92" font-family="Inter,Helvetica,sans-serif" font-size="10.00" fill="#4c1d95">otelcol&#45;contrib</text>
<text xml:space="preserve" text-anchor="middle" x="818.49" y="-1147.42" font-family="Inter,Helvetica,sans-serif" font-size="10.00" fill="#4c1d95">:4318/v1/traces</text>
<text xml:space="preserve" text-anchor="middle" x="818.49" y="-1136.92" font-family="Inter,Helvetica,sans-serif" font-size="10.00" fill="#4c1d95">(opt&#45;in, M8B Step 3)</text>
</g>
<!-- acva&#45;&gt;otel -->
<g id="edge28" class="edge">
<title>acva&#45;&gt;otel</title>
<path fill="none" stroke="#6d28d9" stroke-dasharray="5,2" d="M542.82,-548.47C551.57,-553.29 559.78,-559.56 565.49,-567.67 612.9,-635.01 564.94,-672.46 587.49,-751.67 631.64,-906.79 645.55,-950.38 740.61,-1080.67 752.32,-1096.71 768.05,-1112 782.22,-1124.25"/>
<polygon fill="#6d28d9" stroke="#6d28d9" points="779.74,-1126.74 789.64,-1130.49 784.24,-1121.38 779.74,-1126.74"/>
<text xml:space="preserve" text-anchor="middle" x="656.11" y="-1069.06" font-family="Inter,Helvetica,sans-serif" font-size="9.00">OTLP/HTTP</text>
<text xml:space="preserve" text-anchor="middle" x="656.11" y="-1059.31" font-family="Inter,Helvetica,sans-serif" font-size="9.00">span trees per turn</text>
</g>
<!-- Registry -->
<g id="node6" class="node">
<title>Registry</title>
<path fill="#60a5fa" stroke="#1f2937" stroke-width="1.2" d="M1164.86,-570.98C1164.86,-572.98 1144.47,-574.61 1119.36,-574.61 1094.26,-574.61 1073.86,-572.98 1073.86,-570.98 1073.86,-570.98 1073.86,-538.36 1073.86,-538.36 1073.86,-536.36 1094.26,-534.73 1119.36,-534.73 1144.47,-534.73 1164.86,-536.36 1164.86,-538.36 1164.86,-538.36 1164.86,-570.98 1164.86,-570.98"/>
<path fill="none" stroke="#1f2937" stroke-width="1.2" d="M1164.86,-570.98C1164.86,-568.98 1144.47,-567.36 1119.36,-567.36 1094.26,-567.36 1073.86,-568.98 1073.86,-570.98"/>
<text xml:space="preserve" text-anchor="middle" x="1119.36" y="-555.67" font-family="Inter,Helvetica,sans-serif" font-size="10.00" fill="#0c1844">metrics::Registry</text>
<text xml:space="preserve" text-anchor="middle" x="1119.36" y="-545.17" font-family="Inter,Helvetica,sans-serif" font-size="10.00" fill="#0c1844">prometheus&#45;cpp</text>
</g>
<!-- AudioPipeline&#45;&gt;Registry -->
<g id="edge1" class="edge">
<title>AudioPipeline&#45;&gt;Registry</title>
<path fill="none" stroke="#475569" stroke-dasharray="1,5" d="M877.47,-533.71C930.92,-538.36 1009.75,-545.22 1062.51,-549.81"/>
<polygon fill="#475569" stroke="#475569" points="1061.92,-553.27 1072.18,-550.65 1062.52,-546.3 1061.92,-553.27"/>
<text xml:space="preserve" text-anchor="middle" x="972.99" y="-548.19" font-family="Inter,Helvetica,sans-serif" font-size="9.00">set_*</text>
</g>
<!-- speaches -->
<g id="node18" class="node">
<title>speaches</title>
<polygon fill="#fdba74" stroke="#1f2937" stroke-width="1.2" points="1172.74,-220.67 1065.99,-220.67 1065.99,-170.67 1172.74,-170.67 1172.74,-220.67"/>
<text xml:space="preserve" text-anchor="middle" x="1119.36" y="-207.17" font-family="Inter,Helvetica,sans-serif" font-size="10.00" fill="#7c2d12">speaches</text>
<text xml:space="preserve" text-anchor="middle" x="1119.36" y="-196.67" font-family="Inter,Helvetica,sans-serif" font-size="10.00" fill="#7c2d12">:8090</text>
<text xml:space="preserve" text-anchor="middle" x="1119.36" y="-186.17" font-family="Inter,Helvetica,sans-serif" font-size="10.00" fill="#7c2d12">STT + TTS</text>
<text xml:space="preserve" text-anchor="middle" x="1119.36" y="-175.67" font-family="Inter,Helvetica,sans-serif" font-size="10.00" fill="#7c2d12">(no /metrics surface)</text>
</g>
<!-- AudioPipeline&#45;&gt;speaches -->
<g id="edge19" class="edge">
<title>AudioPipeline&#45;&gt;speaches</title>
<path fill="none" stroke="#c2410c" d="M875.37,-508.4C881.14,-504.31 886.31,-499.45 890.24,-493.67 923.32,-445.04 872.38,-273.17 912.24,-229.92 947.48,-191.68 1007.89,-185.53 1054.23,-187.52"/>
<polygon fill="#c2410c" stroke="#c2410c" points="1053.98,-191.01 1064.17,-188.1 1054.39,-184.02 1053.98,-191.01"/>
<text xml:space="preserve" text-anchor="middle" x="972.99" y="-231.12" font-family="Inter,Helvetica,sans-serif" font-size="9.00">POST /v1/audio/transcriptions</text>
</g>
<!-- pa -->
<g id="node31" class="node">
<title>pa</title>
<ellipse fill="#cbd5e1" stroke="#1f2937" stroke-width="1.2" cx="1393.24" cy="-162.67" rx="59.57" ry="20.51"/>
<text xml:space="preserve" text-anchor="middle" x="1393.24" y="-163.67" font-family="Inter,Helvetica,sans-serif" font-size="10.00" fill="#334155">PortAudio /</text>
<text xml:space="preserve" text-anchor="middle" x="1393.24" y="-153.17" font-family="Inter,Helvetica,sans-serif" font-size="10.00" fill="#334155">PipeWire&#45;Pulse</text>
</g>
<!-- AudioPipeline&#45;&gt;pa -->
<g id="edge40" class="edge">
<title>AudioPipeline&#45;&gt;pa</title>
<path fill="none" stroke="#475569" d="M873.56,-508.53C879.85,-504.39 885.65,-499.48 890.24,-493.67 917.36,-459.32 881.88,-429.2 912.24,-397.67 1034.42,-270.77 1188.12,-421.39 1289.99,-277.67 1310.65,-248.52 1276.15,-225.95 1297.99,-197.67 1305.74,-187.63 1316.7,-180.46 1328.4,-175.36"/>
<polygon fill="#475569" stroke="#475569" points="1329.32,-178.75 1337.41,-171.92 1326.82,-172.21 1329.32,-178.75"/>
<text xml:space="preserve" text-anchor="middle" x="1119.36" y="-346.65" font-family="Inter,Helvetica,sans-serif" font-size="9.00">capture</text>
</g>
<!-- DialogueManager&#45;&gt;Registry -->
<g id="edge2" class="edge">
<title>DialogueManager&#45;&gt;Registry</title>
<path fill="none" stroke="#475569" stroke-dasharray="1,5" d="M881.02,-474.96C924.16,-486.16 982.96,-502.42 1033.74,-519.92 1043.88,-523.42 1054.56,-527.48 1064.79,-531.58"/>
<polygon fill="#475569" stroke="#475569" points="1063.26,-534.74 1073.84,-535.27 1065.9,-528.26 1063.26,-534.74"/>
<text xml:space="preserve" text-anchor="middle" x="972.99" y="-521.12" font-family="Inter,Helvetica,sans-serif" font-size="9.00">set_*</text>
</g>
<!-- sqlite -->
<g id="node15" class="node">
<title>sqlite</title>
<path fill="#86efac" stroke="#1f2937" stroke-width="1.2" d="M1169.74,-738.7C1169.74,-742.87 1147.16,-746.26 1119.36,-746.26 1091.57,-746.26 1068.99,-742.87 1068.99,-738.7 1068.99,-738.7 1068.99,-670.64 1068.99,-670.64 1068.99,-666.47 1091.57,-663.08 1119.36,-663.08 1147.16,-663.08 1169.74,-666.47 1169.74,-670.64 1169.74,-670.64 1169.74,-738.7 1169.74,-738.7"/>
<path fill="none" stroke="#1f2937" stroke-width="1.2" d="M1169.74,-738.7C1169.74,-734.53 1147.16,-731.14 1119.36,-731.14 1091.57,-731.14 1068.99,-734.53 1068.99,-738.7"/>
<text xml:space="preserve" text-anchor="middle" x="1119.36" y="-721.42" font-family="Inter,Helvetica,sans-serif" font-size="10.00" fill="#14532d">SQLite (WAL)</text>
<text xml:space="preserve" text-anchor="middle" x="1119.36" y="-710.92" font-family="Inter,Helvetica,sans-serif" font-size="10.00" fill="#14532d">acva.db</text>
<text xml:space="preserve" text-anchor="middle" x="1119.36" y="-700.42" font-family="Inter,Helvetica,sans-serif" font-size="10.00" fill="#14532d">sessions / turns /</text>
<text xml:space="preserve" text-anchor="middle" x="1119.36" y="-689.92" font-family="Inter,Helvetica,sans-serif" font-size="10.00" fill="#14532d">summaries / facts /</text>
<text xml:space="preserve" text-anchor="middle" x="1119.36" y="-679.42" font-family="Inter,Helvetica,sans-serif" font-size="10.00" fill="#14532d">runtime_state</text>
</g>
<!-- DialogueManager&#45;&gt;sqlite -->
<g id="edge17" class="edge">
<title>DialogueManager&#45;&gt;sqlite</title>
<path fill="none" stroke="#15803d" d="M874.11,-479.88C880.24,-484 885.85,-488.89 890.24,-494.67 921.97,-536.46 879.85,-569.38 912.24,-610.67 914.72,-613.83 998.05,-651.27 1057.98,-677.93"/>
<polygon fill="#15803d" stroke="#15803d" points="1056.56,-681.13 1067.12,-681.99 1059.4,-674.73 1056.56,-681.13"/>
<text xml:space="preserve" text-anchor="middle" x="972.99" y="-675.95" font-family="Inter,Helvetica,sans-serif" font-size="9.00">MemoryThread</text>
<text xml:space="preserve" text-anchor="middle" x="972.99" y="-666.2" font-family="Inter,Helvetica,sans-serif" font-size="9.00">writes</text>
</g>
<!-- llama -->
<g id="node17" class="node">
<title>llama</title>
<polygon fill="#fdba74" stroke="#1f2937" stroke-width="1.2" points="1164.86,-289.42 1073.86,-289.42 1073.86,-249.92 1164.86,-249.92 1164.86,-289.42"/>
<text xml:space="preserve" text-anchor="middle" x="1119.36" y="-275.92" font-family="Inter,Helvetica,sans-serif" font-size="10.00" fill="#7c2d12">llama&#45;server</text>
<text xml:space="preserve" text-anchor="middle" x="1119.36" y="-265.42" font-family="Inter,Helvetica,sans-serif" font-size="10.00" fill="#7c2d12">:8081</text>
<text xml:space="preserve" text-anchor="middle" x="1119.36" y="-254.92" font-family="Inter,Helvetica,sans-serif" font-size="10.00" fill="#7c2d12">&#45;&#45;metrics enabled</text>
</g>
<!-- DialogueManager&#45;&gt;llama -->
<g id="edge20" class="edge">
<title>DialogueManager&#45;&gt;llama</title>
<path fill="none" stroke="#c2410c" d="M874.12,-439.47C880.25,-435.35 885.85,-430.46 890.24,-424.67 922.15,-382.6 874.85,-345.21 912.24,-307.92 932.89,-287.33 1008.45,-277.53 1062.09,-273.08"/>
<polygon fill="#c2410c" stroke="#c2410c" points="1062.3,-276.57 1072,-272.3 1061.76,-269.59 1062.3,-276.57"/>
<text xml:space="preserve" text-anchor="middle" x="972.99" y="-309.12" font-family="Inter,Helvetica,sans-serif" font-size="9.00">SSE /v1/chat/completions</text>
</g>
<!-- DialogueManager&#45;&gt;speaches -->
<g id="edge21" class="edge">
<title>DialogueManager&#45;&gt;speaches</title>
<path fill="none" stroke="#c2410c" d="M875.34,-439.38C881.11,-435.3 886.29,-430.44 890.24,-424.67 921.56,-378.86 871.31,-213.39 912.24,-175.92 950.04,-141.31 1009.67,-151.38 1055.09,-167.09"/>
<polygon fill="#c2410c" stroke="#c2410c" points="1053.7,-170.31 1064.3,-170.44 1056.1,-163.73 1053.7,-170.31"/>
<text xml:space="preserve" text-anchor="middle" x="972.99" y="-177.12" font-family="Inter,Helvetica,sans-serif" font-size="9.00">POST /v1/audio/speech</text>
</g>
<!-- DialogueManager&#45;&gt;pa -->
<g id="edge41" class="edge">
<title>DialogueManager&#45;&gt;pa</title>
<path fill="none" stroke="#475569" d="M875.46,-439.46C881.21,-435.36 886.35,-430.48 890.24,-424.67 930.25,-364.88 874.34,-162.82 912.24,-101.67 947.36,-44.99 977.38,-43.36 1041.74,-25.92 1148.31,2.96 1193.05,17.2 1289.99,-35.67 1330,-57.49 1360.13,-102.1 1376.98,-132.21"/>
<polygon fill="#475569" stroke="#475569" points="1373.82,-133.73 1381.66,-140.86 1379.98,-130.39 1373.82,-133.73"/>
<text xml:space="preserve" text-anchor="middle" x="1119.36" y="-27.12" font-family="Inter,Helvetica,sans-serif" font-size="9.00">playback</text>
</g>
<!-- Supervisor&#45;&gt;Registry -->
<g id="edge3" class="edge">
<title>Supervisor&#45;&gt;Registry</title>
<path fill="none" stroke="#475569" stroke-dasharray="1,5" d="M875.94,-399.36C921.41,-408.35 985.48,-425.66 1033.74,-457.17 1060.59,-474.7 1083.86,-503.1 1099.17,-524.73"/>
<polygon fill="#475569" stroke="#475569" points="1096.22,-526.62 1104.77,-532.89 1101.99,-522.66 1096.22,-526.62"/>
<text xml:space="preserve" text-anchor="middle" x="972.99" y="-468.12" font-family="Inter,Helvetica,sans-serif" font-size="9.00">health,</text>
<text xml:space="preserve" text-anchor="middle" x="972.99" y="-458.37" font-family="Inter,Helvetica,sans-serif" font-size="9.00">pipeline</text>
</g>
<!-- Supervisor&#45;&gt;llama -->
<g id="edge22" class="edge">
<title>Supervisor&#45;&gt;llama</title>
<path fill="none" stroke="#c2410c" stroke-dasharray="5,2" d="M827.16,-370.65C839.77,-340.97 867.98,-286.38 912.24,-263.92 958.69,-240.35 1018.92,-245.43 1062.27,-254.21"/>
<polygon fill="#c2410c" stroke="#c2410c" points="1061.47,-257.62 1071.98,-256.31 1062.95,-250.77 1061.47,-257.62"/>
<text xml:space="preserve" text-anchor="middle" x="972.99" y="-265.12" font-family="Inter,Helvetica,sans-serif" font-size="9.00">GET /health</text>
</g>
<!-- Supervisor&#45;&gt;speaches -->
<g id="edge23" class="edge">
<title>Supervisor&#45;&gt;speaches</title>
<path fill="none" stroke="#c2410c" stroke-dasharray="5,2" d="M825.99,-370.59C845.35,-311.06 901.92,-139.18 912.24,-131.92 956.4,-100.84 989.88,-100.42 1033.74,-131.92 1042.79,-138.42 1034.5,-147.2 1041.74,-155.67 1045.92,-160.57 1050.86,-164.94 1056.18,-168.84"/>
<polygon fill="#c2410c" stroke="#c2410c" points="1053.89,-171.52 1064.16,-174.12 1057.75,-165.68 1053.89,-171.52"/>
<text xml:space="preserve" text-anchor="middle" x="972.99" y="-133.12" font-family="Inter,Helvetica,sans-serif" font-size="9.00">GET /health</text>
</g>
<!-- VramMonitor&#45;&gt;Registry -->
<g id="edge4" class="edge">
<title>VramMonitor&#45;&gt;Registry</title>
<path fill="none" stroke="#475569" stroke-dasharray="1,5" d="M890.7,-587.43C943.29,-579.86 1013.88,-569.7 1062.44,-562.72"/>
<polygon fill="#475569" stroke="#475569" points="1062.77,-566.2 1072.17,-561.32 1061.78,-559.28 1062.77,-566.2"/>
<text xml:space="preserve" text-anchor="middle" x="972.99" y="-594.71" font-family="Inter,Helvetica,sans-serif" font-size="9.00">speaches_*</text>
<text xml:space="preserve" text-anchor="middle" x="972.99" y="-584.96" font-family="Inter,Helvetica,sans-serif" font-size="9.00">vram_low</text>
</g>
<!-- nvsmi -->
<g id="node27" class="node">
<title>nvsmi</title>
<ellipse fill="#cbd5e1" stroke="#1f2937" stroke-width="1.2" cx="1393.24" cy="-232.67" rx="74.42" ry="20.51"/>
<text xml:space="preserve" text-anchor="middle" x="1393.24" y="-233.67" font-family="Inter,Helvetica,sans-serif" font-size="10.00" fill="#334155">nvidia&#45;smi</text>
<text xml:space="preserve" text-anchor="middle" x="1393.24" y="-223.17" font-family="Inter,Helvetica,sans-serif" font-size="10.00" fill="#334155">query&#45;compute&#45;apps</text>
</g>
<!-- VramMonitor&#45;&gt;nvsmi -->
<g id="edge36" class="edge">
<title>VramMonitor&#45;&gt;nvsmi</title>
<path fill="none" stroke="#475569" d="M874.76,-577.45C880.7,-573.34 886.09,-568.46 890.24,-562.67 933.34,-502.54 871.62,-459.51 912.24,-397.67 946.82,-345.02 1001.8,-378.97 1033.74,-324.67 1047.15,-301.86 1022.72,-105.06 1041.74,-86.67 1091.66,-38.4 1132.11,-64.71 1197.99,-86.67 1246.48,-102.83 1262.94,-112.31 1289.99,-155.67 1300.05,-171.79 1285.72,-183.16 1297.99,-197.67 1304.46,-205.32 1312.76,-211.3 1321.76,-215.97"/>
<polygon fill="#475569" stroke="#475569" points="1320.21,-219.12 1330.77,-220.09 1323.12,-212.75 1320.21,-219.12"/>
</g>
<!-- proc -->
<g id="node28" class="node">
<title>proc</title>
<ellipse fill="#cbd5e1" stroke="#1f2937" stroke-width="1.2" cx="1393.24" cy="-368.67" rx="76.01" ry="20.51"/>
<text xml:space="preserve" text-anchor="middle" x="1393.24" y="-369.67" font-family="Inter,Helvetica,sans-serif" font-size="10.00" fill="#334155">/proc/&lt;pid&gt;/cmdline</text>
<text xml:space="preserve" text-anchor="middle" x="1393.24" y="-359.17" font-family="Inter,Helvetica,sans-serif" font-size="10.00" fill="#334155">speaches&#45;PID match</text>
</g>
<!-- VramMonitor&#45;&gt;proc -->
<g id="edge37" class="edge">
<title>VramMonitor&#45;&gt;proc</title>
<path fill="none" stroke="#475569" d="M874.61,-577.34C880.58,-573.25 886.01,-568.4 890.24,-562.67 926.6,-513.41 868.08,-469.09 912.24,-426.67 926.37,-413.09 1175.47,-388.45 1309.09,-376.12"/>
<polygon fill="#475569" stroke="#475569" points="1309.33,-379.61 1318.97,-375.21 1308.69,-372.64 1309.33,-379.61"/>
</g>
<!-- ep_metrics -->
<g id="node8" class="node">
<title>ep_metrics</title>
<polygon fill="#67e8f9" stroke="#1f2937" stroke-width="1.2" points="1430.49,-1211.67 1349.99,-1211.67 1349.99,-1175.67 1436.49,-1175.67 1436.49,-1205.67 1430.49,-1211.67"/>
<polyline fill="none" stroke="#1f2937" stroke-width="1.2" points="1430.49,-1211.67 1430.49,-1205.67"/>
<polyline fill="none" stroke="#1f2937" stroke-width="1.2" points="1436.49,-1205.67 1430.49,-1205.67"/>
<text xml:space="preserve" text-anchor="middle" x="1393.24" y="-1194.67" font-family="Inter,Helvetica,sans-serif" font-size="10.00" fill="#0c1844">/metrics</text>
<text xml:space="preserve" text-anchor="middle" x="1393.24" y="-1184.17" font-family="Inter,Helvetica,sans-serif" font-size="10.00" fill="#0c1844">Prom exposition</text>
</g>
<!-- Registry&#45;&gt;ep_metrics -->
<g id="edge16" class="edge">
<title>Registry&#45;&gt;ep_metrics</title>
<path fill="none" stroke="#0891b2" stroke-width="1.6" d="M1139.74,-574.99C1156.43,-593.13 1180.52,-620.9 1197.99,-647.67 1313.06,-823.98 1369.8,-1076.87 1386.69,-1163.34"/>
<polygon fill="#0891b2" stroke="#0891b2" stroke-width="1.6" points="1383.2,-1163.77 1388.52,-1172.93 1390.08,-1162.45 1383.2,-1163.77"/>
<text xml:space="preserve" text-anchor="middle" x="1247.99" y="-817.82" font-family="Inter,Helvetica,sans-serif" font-size="9.00">serialize</text>
</g>
<!-- ControlServer -->
<g id="node7" class="node">
<title>ControlServer</title>
<polygon fill="#3b82f6" stroke="#1f2937" stroke-width="1.2" points="540.37,-617.67 452.37,-617.67 452.37,-581.67 540.37,-581.67 540.37,-617.67"/>
<text xml:space="preserve" text-anchor="middle" x="496.37" y="-600.67" font-family="Inter,Helvetica,sans-serif" font-size="10.00" fill="white">ControlServer</text>
<text xml:space="preserve" text-anchor="middle" x="496.37" y="-590.17" font-family="Inter,Helvetica,sans-serif" font-size="10.00" fill="white">cpp&#45;httplib :9876</text>
</g>
<!-- ControlServer&#45;&gt;ep_metrics -->
<g id="edge9" class="edge">
<title>ControlServer&#45;&gt;ep_metrics</title>
<path fill="none" stroke="#475569" d="M498.56,-618.15C502.5,-662.44 519.1,-774.87 587.49,-827.67 803.83,-994.71 965.29,-758.3 1197.99,-901.67 1306.85,-968.74 1367.82,-1122.26 1386.22,-1175.27"/>
</g>
<!-- ep_status -->
<g id="node9" class="node">
<title>ep_status</title>
<polygon fill="#67e8f9" stroke="#1f2937" stroke-width="1.2" points="1446.61,-1605.42 1333.86,-1605.42 1333.86,-1565.92 1452.61,-1565.92 1452.61,-1599.42 1446.61,-1605.42"/>
<polyline fill="none" stroke="#1f2937" stroke-width="1.2" points="1446.61,-1605.42 1446.61,-1599.42"/>
<polyline fill="none" stroke="#1f2937" stroke-width="1.2" points="1452.61,-1599.42 1446.61,-1599.42"/>
<text xml:space="preserve" text-anchor="middle" x="1393.24" y="-1591.92" font-family="Inter,Helvetica,sans-serif" font-size="10.00" fill="#0c1844">/status</text>
<text xml:space="preserve" text-anchor="middle" x="1393.24" y="-1581.42" font-family="Inter,Helvetica,sans-serif" font-size="10.00" fill="#0c1844">JSON snapshot</text>
<text xml:space="preserve" text-anchor="middle" x="1393.24" y="-1570.92" font-family="Inter,Helvetica,sans-serif" font-size="10.00" fill="#0c1844">(speaches.wedged hint)</text>
</g>
<!-- ControlServer&#45;&gt;ep_status -->
<g id="edge10" class="edge">
<title>ControlServer&#45;&gt;ep_status</title>
<path fill="none" stroke="#475569" d="M528.93,-618.23C654.61,-692.8 1116.57,-973.64 1197.99,-1119.67 1208.2,-1137.98 1202.33,-1193.03 1205.99,-1213.67 1233.15,-1366.97 1192.42,-1437.24 1297.99,-1551.67 1307.54,-1562.03 1320.49,-1569.23 1333.72,-1574.25"/>
</g>
<!-- ep_health -->
<g id="node10" class="node">
<title>ep_health</title>
<polygon fill="#a5f3fc" stroke="#1f2937" stroke-width="1.2" points="1414.24,-1406.67 1366.24,-1406.67 1366.24,-1370.67 1420.24,-1370.67 1420.24,-1400.67 1414.24,-1406.67"/>
<polyline fill="none" stroke="#1f2937" stroke-width="1.2" points="1414.24,-1406.67 1414.24,-1400.67"/>
<polyline fill="none" stroke="#1f2937" stroke-width="1.2" points="1420.24,-1400.67 1414.24,-1400.67"/>
<text xml:space="preserve" text-anchor="middle" x="1393.24" y="-1389.67" font-family="Inter,Helvetica,sans-serif" font-size="10.00" fill="#0c1844">/health</text>
<text xml:space="preserve" text-anchor="middle" x="1393.24" y="-1379.17" font-family="Inter,Helvetica,sans-serif" font-size="10.00" fill="#0c1844">liveness</text>
</g>
<!-- ControlServer&#45;&gt;ep_health -->
<g id="edge11" class="edge">
<title>ControlServer&#45;&gt;ep_health</title>
<path fill="none" stroke="#475569" d="M498.1,-618.09C502.73,-730.31 529.71,-1319.14 587.49,-1371.67 646.17,-1425.02 1233.53,-1397.12 1365.86,-1390.12"/>
</g>
<!-- ep_reload -->
<g id="node11" class="node">
<title>ep_reload</title>
<polygon fill="#a5f3fc" stroke="#1f2937" stroke-width="1.2" points="1415.11,-1536.67 1365.36,-1536.67 1365.36,-1500.67 1421.11,-1500.67 1421.11,-1530.67 1415.11,-1536.67"/>
<polyline fill="none" stroke="#1f2937" stroke-width="1.2" points="1415.11,-1536.67 1415.11,-1530.67"/>
<polyline fill="none" stroke="#1f2937" stroke-width="1.2" points="1421.11,-1530.67 1415.11,-1530.67"/>
<text xml:space="preserve" text-anchor="middle" x="1393.24" y="-1519.67" font-family="Inter,Helvetica,sans-serif" font-size="10.00" fill="#0c1844">/reload</text>
<text xml:space="preserve" text-anchor="middle" x="1393.24" y="-1509.17" font-family="Inter,Helvetica,sans-serif" font-size="10.00" fill="#0c1844">hot fields</text>
</g>
<!-- ControlServer&#45;&gt;ep_reload -->
<g id="edge12" class="edge">
<title>ControlServer&#45;&gt;ep_reload</title>
<path fill="none" stroke="#475569" d="M498.34,-618.1C503.29,-707.23 527.9,-1093.53 587.49,-1195.67 631.06,-1270.36 663.29,-1276.98 740.61,-1315.67 861.28,-1376.05 904.81,-1354.91 1033.74,-1394.67 1152.58,-1431.32 1180.39,-1446.23 1297.99,-1486.67 1320.54,-1494.42 1346.17,-1503.12 1365,-1509.48"/>
</g>
<!-- ep_mute -->
<g id="node12" class="node">
<title>ep_mute</title>
<polygon fill="#a5f3fc" stroke="#1f2937" stroke-width="1.2" points="1429.74,-1276.67 1350.74,-1276.67 1350.74,-1240.67 1435.74,-1240.67 1435.74,-1270.67 1429.74,-1276.67"/>
<polyline fill="none" stroke="#1f2937" stroke-width="1.2" points="1429.74,-1276.67 1429.74,-1270.67"/>
<polyline fill="none" stroke="#1f2937" stroke-width="1.2" points="1435.74,-1270.67 1429.74,-1270.67"/>
<text xml:space="preserve" text-anchor="middle" x="1393.24" y="-1259.67" font-family="Inter,Helvetica,sans-serif" font-size="10.00" fill="#0c1844">/mute · /unmute</text>
<text xml:space="preserve" text-anchor="middle" x="1393.24" y="-1249.17" font-family="Inter,Helvetica,sans-serif" font-size="10.00" fill="#0c1844">VAD intake</text>
</g>
<!-- ControlServer&#45;&gt;ep_mute -->
<g id="edge13" class="edge">
<title>ControlServer&#45;&gt;ep_mute</title>
<path fill="none" stroke="#475569" d="M497.55,-617.82C498.83,-683.77 509,-915.74 587.49,-1084.67 632.75,-1182.09 643.53,-1225.69 740.61,-1271.67 950.51,-1371.08 1242.71,-1302.73 1350.31,-1271.72"/>
</g>
<!-- ep_wipe -->
<g id="node13" class="node">
<title>ep_wipe</title>
<polygon fill="#a5f3fc" stroke="#1f2937" stroke-width="1.2" points="1461.24,-1471.67 1319.24,-1471.67 1319.24,-1435.67 1467.24,-1435.67 1467.24,-1465.67 1461.24,-1471.67"/>
<polyline fill="none" stroke="#1f2937" stroke-width="1.2" points="1461.24,-1471.67 1461.24,-1465.67"/>
<polyline fill="none" stroke="#1f2937" stroke-width="1.2" points="1467.24,-1465.67 1461.24,-1465.67"/>
<text xml:space="preserve" text-anchor="middle" x="1393.24" y="-1454.67" font-family="Inter,Helvetica,sans-serif" font-size="10.00" fill="#0c1844">/new&#45;session</text>
<text xml:space="preserve" text-anchor="middle" x="1393.24" y="-1444.17" font-family="Inter,Helvetica,sans-serif" font-size="10.00" fill="#0c1844">/wipe?session= /wipe?all=true</text>
</g>
<!-- ControlServer&#45;&gt;ep_wipe -->
<g id="edge14" class="edge">
<title>ControlServer&#45;&gt;ep_wipe</title>
<path fill="none" stroke="#475569" d="M496.91,-618.11C496.6,-672.2 503.21,-832.16 587.49,-919.67 686.38,-1022.35 1111.17,-1003.6 1197.99,-1116.67 1208.63,-1130.52 1200.77,-1257 1205.99,-1273.67 1229.14,-1347.58 1237.33,-1373.52 1297.99,-1421.67 1304.76,-1427.04 1312.48,-1431.54 1320.52,-1435.29"/>
</g>
<!-- ep_restart -->
<g id="node14" class="node">
<title>ep_restart</title>
<polygon fill="#a5f3fc" stroke="#1f2937" stroke-width="1.2" points="1434.61,-1341.67 1345.86,-1341.67 1345.86,-1305.67 1440.61,-1305.67 1440.61,-1335.67 1434.61,-1341.67"/>
<polyline fill="none" stroke="#1f2937" stroke-width="1.2" points="1434.61,-1341.67 1434.61,-1335.67"/>
<polyline fill="none" stroke="#1f2937" stroke-width="1.2" points="1440.61,-1335.67 1434.61,-1335.67"/>
<text xml:space="preserve" text-anchor="middle" x="1393.24" y="-1324.67" font-family="Inter,Helvetica,sans-serif" font-size="10.00" fill="#0c1844">/restart</text>
<text xml:space="preserve" text-anchor="middle" x="1393.24" y="-1314.17" font-family="Inter,Helvetica,sans-serif" font-size="10.00" fill="#0c1844">checkpoint+execv</text>
</g>
<!-- ControlServer&#45;&gt;ep_restart -->
<g id="edge15" class="edge">
<title>ControlServer&#45;&gt;ep_restart</title>
<path fill="none" stroke="#475569" d="M497.17,-618.23C497.72,-668.94 506.76,-810.64 587.49,-879.67 691.5,-968.61 1105.79,-859.53 1197.99,-960.67 1216.94,-981.45 1193.77,-1188.34 1205.99,-1213.67 1232.35,-1268.29 1299.57,-1297.77 1345.61,-1312.1"/>
</g>
<!-- docksock -->
<g id="node30" class="node">
<title>docksock</title>
<ellipse fill="#cbd5e1" stroke="#1f2937" stroke-width="1.2" cx="1393.24" cy="-300.67" rx="60.47" ry="18"/>
<text xml:space="preserve" text-anchor="middle" x="1393.24" y="-296.42" font-family="Inter,Helvetica,sans-serif" font-size="10.00" fill="#334155">/var/run/docker.sock</text>
</g>
<!-- model_ctl&#45;&gt;docksock -->
<g id="edge39" class="edge">
<title>model_ctl&#45;&gt;docksock</title>
<path fill="none" stroke="#475569" stroke-dasharray="5,2" d="M1173,-141.03C1181.7,-145.25 1190.37,-150.14 1197.99,-155.67 1252.01,-194.84 1242.52,-230.58 1297.99,-267.67 1309.14,-275.12 1322.15,-281.09 1334.89,-285.78"/>
<polygon fill="#475569" stroke="#475569" points="1333.45,-288.98 1344.04,-288.93 1335.73,-282.36 1333.45,-288.98"/>
<text xml:space="preserve" text-anchor="middle" x="1247.99" y="-262.21" font-family="Inter,Helvetica,sans-serif" font-size="9.00">docker compose CLI</text>
</g>
<!-- prom -->
<g id="node20" class="node">
<title>prom</title>
<polygon fill="#a78bfa" stroke="#1f2937" stroke-width="1.2" points="1153.61,-1195.67 1085.11,-1195.67 1085.11,-1159.67 1153.61,-1159.67 1153.61,-1195.67"/>
<text xml:space="preserve" text-anchor="middle" x="1119.36" y="-1178.67" font-family="Inter,Helvetica,sans-serif" font-size="10.00" fill="white">Prometheus</text>
<text xml:space="preserve" text-anchor="middle" x="1119.36" y="-1168.17" font-family="Inter,Helvetica,sans-serif" font-size="10.00" fill="white">local scrape</text>
</g>
<!-- prom&#45;&gt;ep_metrics -->
<g id="edge25" class="edge">
<title>prom&#45;&gt;ep_metrics</title>
<path fill="none" stroke="#6d28d9" stroke-width="2" d="M1166.96,-1180.41C1218.3,-1183.43 1300.15,-1188.25 1349.78,-1191.17"/>
<polygon fill="#6d28d9" stroke="#6d28d9" stroke-width="2" points="1167.18,-1176.92 1157,-1179.83 1166.77,-1183.91 1167.18,-1176.92"/>
<text xml:space="preserve" text-anchor="middle" x="1247.99" y="-1198.52" font-family="Inter,Helvetica,sans-serif" font-size="9.00">GET /metrics</text>
<text xml:space="preserve" text-anchor="middle" x="1247.99" y="-1188.77" font-family="Inter,Helvetica,sans-serif" font-size="9.00">(N s scrape)</text>
</g>
<!-- prom&#45;&gt;llama -->
<g id="edge26" class="edge">
<title>prom&#45;&gt;llama</title>
<path fill="none" stroke="#6d28d9" stroke-dasharray="5,2" d="M1096.19,-1150.54C1078.6,-1128.53 1055.22,-1095.96 1041.74,-1063.67 978.92,-913.17 987.06,-865.87 971.34,-703.55 954.54,-530.03 943.16,-461.45 1041.74,-317.67 1049.71,-306.04 1061.53,-296.69 1073.54,-289.45"/>
<polygon fill="#6d28d9" stroke="#6d28d9" points="1093.34,-1152.58 1102.37,-1158.12 1098.76,-1148.16 1093.34,-1152.58"/>
<text xml:space="preserve" text-anchor="middle" x="972.99" y="-695" font-family="Inter,Helvetica,sans-serif" font-size="9.00">GET /metrics</text>
</g>
<!-- graf -->
<g id="node21" class="node">
<title>graf</title>
<polygon fill="#a78bfa" stroke="#1f2937" stroke-width="1.2" points="888.36,-1240.42 748.61,-1240.42 748.61,-1200.92 888.36,-1200.92 888.36,-1240.42"/>
<text xml:space="preserve" text-anchor="middle" x="818.49" y="-1226.92" font-family="Inter,Helvetica,sans-serif" font-size="10.00" fill="white">Grafana</text>
<text xml:space="preserve" text-anchor="middle" x="818.49" y="-1216.42" font-family="Inter,Helvetica,sans-serif" font-size="10.00" fill="white">packaging/grafana/acva.json</text>
<text xml:space="preserve" text-anchor="middle" x="818.49" y="-1205.92" font-family="Inter,Helvetica,sans-serif" font-size="10.00" fill="white">(M8B Step 2)</text>
</g>
<!-- graf&#45;&gt;prom -->
<g id="edge27" class="edge">
<title>graf&#45;&gt;prom</title>
<path fill="none" stroke="#6d28d9" stroke-width="2" d="M888.81,-1210.7C945.04,-1202.61 1022.77,-1191.42 1071.79,-1184.37"/>
<polygon fill="#6d28d9" stroke="#6d28d9" stroke-width="2" points="1072.12,-1187.86 1081.52,-1182.97 1071.12,-1180.93 1072.12,-1187.86"/>
<text xml:space="preserve" text-anchor="middle" x="972.99" y="-1207.96" font-family="Inter,Helvetica,sans-serif" font-size="9.00">PromQL</text>
</g>
<!-- soak_sh -->
<g id="node23" class="node">
<title>soak_sh</title>
<polygon fill="#fca5a5" stroke="#1f2937" stroke-width="1.2" points="114.5,-1677.67 31.75,-1677.67 31.75,-1641.67 114.5,-1641.67 114.5,-1677.67"/>
<text xml:space="preserve" text-anchor="middle" x="73.12" y="-1660.67" font-family="Inter,Helvetica,sans-serif" font-size="10.00" fill="#7f1d1d">scripts/soak.sh</text>
<text xml:space="preserve" text-anchor="middle" x="73.12" y="-1650.17" font-family="Inter,Helvetica,sans-serif" font-size="10.00" fill="#7f1d1d">bash wrapper</text>
</g>
<!-- soak_py -->
<g id="node24" class="node">
<title>soak_py</title>
<polygon fill="#fca5a5" stroke="#1f2937" stroke-width="1.2" points="293.25,-1678.67 175.25,-1678.67 175.25,-1642.67 293.25,-1642.67 293.25,-1678.67"/>
<text xml:space="preserve" text-anchor="middle" x="234.25" y="-1661.67" font-family="Inter,Helvetica,sans-serif" font-size="10.00" fill="#7f1d1d">scripts/soak&#45;driver.py</text>
<text xml:space="preserve" text-anchor="middle" x="234.25" y="-1651.17" font-family="Inter,Helvetica,sans-serif" font-size="10.00" fill="#7f1d1d">feed · poll · auto&#45;restart</text>
</g>
<!-- soak_sh&#45;&gt;soak_py -->
<g id="edge29" class="edge">
<title>soak_sh&#45;&gt;soak_py</title>
<path fill="none" stroke="#b91c1c" d="M114.69,-1659.93C129.5,-1660.02 146.71,-1660.13 163.35,-1660.23"/>
<polygon fill="#b91c1c" stroke="#b91c1c" points="163.21,-1663.73 173.23,-1660.29 163.25,-1656.73 163.21,-1663.73"/>
</g>
<!-- soak_py&#45;&gt;acva -->
<g id="edge31" class="edge">
<title>soak_py&#45;&gt;acva</title>
<path fill="none" stroke="#b91c1c" d="M236.12,-1642.16C242.57,-1512.8 286.46,-744.02 427.25,-567.67 430.92,-563.08 435.37,-559.05 440.22,-555.54"/>
<polygon fill="#b91c1c" stroke="#b91c1c" points="442.07,-558.5 448.66,-550.2 438.33,-552.59 442.07,-558.5"/>
<text xml:space="preserve" text-anchor="middle" x="360.25" y="-899.7" font-family="Inter,Helvetica,sans-serif" font-size="9.00">acva &#45;&#45;stdin</text>
<text xml:space="preserve" text-anchor="middle" x="360.25" y="-889.95" font-family="Inter,Helvetica,sans-serif" font-size="9.00">FinalTranscript stream</text>
</g>
<!-- soak_py&#45;&gt;ep_metrics -->
<g id="edge32" class="edge">
<title>soak_py&#45;&gt;ep_metrics</title>
<path fill="none" stroke="#b91c1c" d="M261.98,-1679.19C297.71,-1702.7 363.9,-1741.96 427.25,-1756.67 694.65,-1818.78 818.83,-1810.48 1033.74,-1639.67 1204.34,-1504.09 1127.08,-1361.85 1297.99,-1226.67 1309.91,-1217.24 1324.72,-1210.4 1339.04,-1205.48"/>
<polygon fill="#b91c1c" stroke="#b91c1c" points="1339.9,-1208.88 1348.39,-1202.54 1337.8,-1202.2 1339.9,-1208.88"/>
<text xml:space="preserve" text-anchor="middle" x="818.49" y="-1797.52" font-family="Inter,Helvetica,sans-serif" font-size="9.00">GET /metrics</text>
<text xml:space="preserve" text-anchor="middle" x="818.49" y="-1787.77" font-family="Inter,Helvetica,sans-serif" font-size="9.00">(every 5 s)</text>
</g>
<!-- soak_py&#45;&gt;ep_status -->
<g id="edge33" class="edge">
<title>soak_py&#45;&gt;ep_status</title>
<path fill="none" stroke="#b91c1c" stroke-dasharray="5,2" d="M293.78,-1663.28C486.52,-1671.3 1099.92,-1692.14 1289.99,-1641.67 1312.87,-1635.59 1336.19,-1623.38 1354.77,-1611.9"/>
<polygon fill="#b91c1c" stroke="#b91c1c" points="1356.47,-1614.97 1363.02,-1606.64 1352.71,-1609.07 1356.47,-1614.97"/>
<text xml:space="preserve" text-anchor="middle" x="818.49" y="-1675.61" font-family="Inter,Helvetica,sans-serif" font-size="9.00">GET /status</text>
</g>
<!-- soak_py&#45;&gt;speaches -->
<g id="edge34" class="edge">
<title>soak_py&#45;&gt;speaches</title>
<path fill="none" stroke="#b91c1c" stroke-dasharray="5,2" d="M235.76,-1642.42C239.32,-1519.49 261.92,-811.01 315.25,-602.67 345.14,-485.9 353.2,-450.78 427.25,-355.67 536.7,-215.09 573.15,-166.49 740.61,-105.67 863.08,-61.2 935.09,-16.56 1033.74,-101.67 1052.11,-117.52 1027.67,-135.9 1041.74,-155.67 1045.64,-161.15 1050.53,-165.94 1055.93,-170.11"/>
<polygon fill="#b91c1c" stroke="#b91c1c" points="1053.94,-173 1064.19,-175.71 1057.87,-167.2 1053.94,-173"/>
<text xml:space="preserve" text-anchor="middle" x="656.11" y="-190.41" font-family="Inter,Helvetica,sans-serif" font-size="9.00">docker compose restart speaches</text>
<text xml:space="preserve" text-anchor="middle" x="656.11" y="-180.66" font-family="Inter,Helvetica,sans-serif" font-size="9.00">(on voice_speaches_wedged=1)</text>
</g>
<!-- soak_csv -->
<g id="node25" class="node">
<title>soak_csv</title>
<polygon fill="#fecaca" stroke="#1f2937" stroke-width="1.2" points="541.49,-1741.67 538.49,-1745.67 517.49,-1745.67 514.49,-1741.67 451.24,-1741.67 451.24,-1705.67 541.49,-1705.67 541.49,-1741.67"/>
<text xml:space="preserve" text-anchor="middle" x="496.37" y="-1724.67" font-family="Inter,Helvetica,sans-serif" font-size="10.00" fill="#7f1d1d">soak&#45;metrics.csv</text>
<text xml:space="preserve" text-anchor="middle" x="496.37" y="-1714.17" font-family="Inter,Helvetica,sans-serif" font-size="10.00" fill="#7f1d1d">+ soak&#45;report.txt</text>
</g>
<!-- soak_py&#45;&gt;soak_csv -->
<g id="edge35" class="edge">
<title>soak_py&#45;&gt;soak_csv</title>
<path fill="none" stroke="#b91c1c" d="M293.68,-1677.92C300.93,-1679.92 308.25,-1681.89 315.25,-1683.67 356.71,-1694.22 403.93,-1704.65 439.62,-1712.21"/>
<polygon fill="#b91c1c" stroke="#b91c1c" points="438.79,-1715.61 449.3,-1714.25 440.23,-1708.77 438.79,-1715.61"/>
</g>
<!-- proc_self -->
<g id="node29" class="node">
<title>proc_self</title>
<ellipse fill="#cbd5e1" stroke="#1f2937" stroke-width="1.2" cx="1393.24" cy="-438.67" rx="67.53" ry="20.51"/>
<text xml:space="preserve" text-anchor="middle" x="1393.24" y="-439.67" font-family="Inter,Helvetica,sans-serif" font-size="10.00" fill="#334155">/proc/&lt;pid&gt;/status</text>
<text xml:space="preserve" text-anchor="middle" x="1393.24" y="-429.17" font-family="Inter,Helvetica,sans-serif" font-size="10.00" fill="#334155">VmRSS</text>
</g>
<!-- soak_py&#45;&gt;proc_self -->
<g id="edge38" class="edge">
<title>soak_py&#45;&gt;proc_self</title>
<path fill="none" stroke="#475569" stroke-dasharray="5,2" d="M248.13,-1642.16C301.2,-1566.97 510.99,-1280.15 740.61,-1106.92 958.32,-942.69 1118.25,-1045.5 1289.99,-833.67 1379.58,-723.17 1391.53,-542.96 1392.52,-470.41"/>
<polygon fill="#475569" stroke="#475569" points="1396.02,-470.86 1392.59,-460.84 1389.02,-470.82 1396.02,-470.86"/>
<text xml:space="preserve" text-anchor="middle" x="818.49" y="-1108.12" font-family="Inter,Helvetica,sans-serif" font-size="9.00">acva RSS</text>
</g>
<!-- prompts -->
<g id="node26" class="node">
<title>prompts</title>
<polygon fill="#fecaca" stroke="#1f2937" stroke-width="1.2" points="130.25,-1742.67 127.25,-1746.67 106.25,-1746.67 103.25,-1742.67 16,-1742.67 16,-1706.67 130.25,-1706.67 130.25,-1742.67"/>
<text xml:space="preserve" text-anchor="middle" x="73.12" y="-1725.67" font-family="Inter,Helvetica,sans-serif" font-size="10.00" fill="#7f1d1d">tests/soak/prompts.txt</text>
<text xml:space="preserve" text-anchor="middle" x="73.12" y="-1715.17" font-family="Inter,Helvetica,sans-serif" font-size="10.00" fill="#7f1d1d">30&#45;line corpus</text>
</g>
<!-- prompts&#45;&gt;soak_py -->
<g id="edge30" class="edge">
<title>prompts&#45;&gt;soak_py</title>
<path fill="none" stroke="#b91c1c" d="M120.15,-1706.16C137.72,-1699.09 157.96,-1690.95 176.42,-1683.53"/>
<polygon fill="#b91c1c" stroke="#b91c1c" points="177.68,-1686.79 185.65,-1679.82 175.06,-1680.3 177.68,-1686.79"/>
</g>
<!-- operator -->
<g id="node32" class="node">
<title>operator</title>
<ellipse fill="#fde68a" stroke="#b45309" stroke-width="1.2" cx="496.37" cy="-1526.67" rx="69.12" ry="20.51"/>
<text xml:space="preserve" text-anchor="middle" x="496.37" y="-1527.67" font-family="Inter,Helvetica,sans-serif" font-size="10.00" fill="#92400e">operator</text>
<text xml:space="preserve" text-anchor="middle" x="496.37" y="-1517.17" font-family="Inter,Helvetica,sans-serif" font-size="10.00" fill="#92400e">(human + curl/CLI)</text>
</g>
<!-- operator&#45;&gt;ep_status -->
<g id="edge43" class="edge">
<title>operator&#45;&gt;ep_status</title>
<path fill="none" stroke="#475569" stroke-dasharray="5,2" d="M524.37,-1545.79C541.59,-1556.9 564.84,-1569.98 587.49,-1576.67 851.73,-1654.71 930.63,-1609.33 1205.99,-1618.67 1243.3,-1619.94 1253.11,-1624.47 1289.99,-1618.67 1302.82,-1616.65 1316.23,-1613.29 1328.96,-1609.47"/>
<polygon fill="#475569" stroke="#475569" points="1330.01,-1612.81 1338.49,-1606.46 1327.9,-1606.13 1330.01,-1612.81"/>
<text xml:space="preserve" text-anchor="middle" x="972.99" y="-1624.39" font-family="Inter,Helvetica,sans-serif" font-size="9.00">curl</text>
</g>
<!-- operator&#45;&gt;ep_reload -->
<g id="edge44" class="edge">
<title>operator&#45;&gt;ep_reload</title>
<path fill="none" stroke="#475569" stroke-dasharray="5,2" d="M547.03,-1541.04C560.08,-1544.2 574.22,-1547.07 587.49,-1548.67 856.88,-1581.08 926.8,-1557.5 1197.99,-1548.67 1238.94,-1547.34 1249.46,-1548.71 1289.99,-1542.67 1311.45,-1539.47 1335.05,-1534.07 1354.16,-1529.19"/>
<polygon fill="#475569" stroke="#475569" points="1354.88,-1532.62 1363.67,-1526.71 1353.11,-1525.85 1354.88,-1532.62"/>
<text xml:space="preserve" text-anchor="middle" x="972.99" y="-1564.39" font-family="Inter,Helvetica,sans-serif" font-size="9.00">POST</text>
</g>
<!-- operator&#45;&gt;ep_wipe -->
<g id="edge46" class="edge">
<title>operator&#45;&gt;ep_wipe</title>
<path fill="none" stroke="#475569" stroke-dasharray="5,2" d="M563.54,-1521.27C723.28,-1508.24 1129.92,-1475.07 1307.32,-1460.6"/>
<polygon fill="#475569" stroke="#475569" points="1307.47,-1464.1 1317.16,-1459.8 1306.9,-1457.12 1307.47,-1464.1"/>
<text xml:space="preserve" text-anchor="middle" x="972.99" y="-1493.9" font-family="Inter,Helvetica,sans-serif" font-size="9.00">POST</text>
</g>
<!-- operator&#45;&gt;ep_restart -->
<g id="edge45" class="edge">
<title>operator&#45;&gt;ep_restart</title>
<path fill="none" stroke="#475569" stroke-dasharray="5,2" d="M547.3,-1512.31C560.34,-1508.7 574.41,-1504.93 587.49,-1501.67 732.23,-1465.61 1175.01,-1370.22 1334.34,-1336.06"/>
<polygon fill="#475569" stroke="#475569" points="1334.8,-1339.54 1343.84,-1334.02 1333.33,-1332.7 1334.8,-1339.54"/>
<text xml:space="preserve" text-anchor="middle" x="972.99" y="-1428.48" font-family="Inter,Helvetica,sans-serif" font-size="9.00">POST</text>
</g>
<!-- operator&#45;&gt;graf -->
<g id="edge42" class="edge">
<title>operator&#45;&gt;graf</title>
<path fill="none" stroke="#475569" d="M517.88,-1507.06C572.95,-1454.42 724.2,-1309.84 788.24,-1248.63"/>
<polygon fill="#475569" stroke="#475569" points="790.41,-1251.4 795.22,-1241.96 785.57,-1246.34 790.41,-1251.4"/>
<text xml:space="preserve" text-anchor="middle" x="656.11" y="-1437.45" font-family="Inter,Helvetica,sans-serif" font-size="9.00">dashboard</text>
</g>
</g>
</svg>
